<?xml version="1.0" standalone="no"?><!DOCTYPE svg PUBLIC "-//W3C//DTD SVG 1.1//EN" "http://www.w3.org/Graphics/SVG/1.1/DTD/svg11.dtd"><svg class="icon" width="200px" height="200.00px" viewBox="0 0 1024 1024" version="1.1" xmlns="http://www.w3.org/2000/svg"><path fill="#cccccc" d="M501.3 972.7c-61.5 0-121.2-12-177.4-35.8-54.3-23-103-55.8-144.8-97.6-41.8-41.8-74.7-90.6-97.6-144.8-23.8-56.3-35.9-116-35.9-177.5s12.1-121.2 35.8-177.4c22.9-54.3 55.8-103 97.6-144.8 41.8-41.8 90.6-74.7 144.8-97.6C380 73.4 439.7 61.4 501.2 61.4s121.2 12.1 177.4 35.8c54.3 23 103 55.8 144.8 97.6 41.8 41.8 74.7 90.6 97.6 144.8 23.8 56.2 35.8 115.9 35.8 177.4s-12 121.2-35.8 177.4c-23 54.3-55.8 103-97.6 144.8-41.8 41.8-90.6 74.7-144.8 97.6-56.1 23.8-115.8 35.9-177.3 35.9z m0-867.9c-55.7 0-109.6 10.9-160.5 32.4-49.1 20.8-93.2 50.5-131 88.4-37.9 37.9-67.6 82-88.4 131C99.9 407.4 89 461.4 89 517s10.9 109.6 32.4 160.5c20.8 49.1 50.5 93.2 88.4 131 37.9 37.9 82 67.6 131 88.4 50.8 21.5 104.8 32.4 160.5 32.4s109.6-10.9 160.5-32.4c49.1-20.8 93.2-50.5 131-88.4 37.9-37.9 67.6-82 88.4-131 21.5-50.8 32.4-104.8 32.4-160.5s-10.9-109.6-32.4-160.5c-20.8-49.1-50.5-93.2-88.4-131-37.9-37.9-82-67.6-131-88.4-50.9-21.4-104.9-32.3-160.5-32.3zM501.3 712.3C393.6 712.3 306 624.7 306 517c0-107.7 87.6-195.3 195.3-195.3 107.7 0 195.3 87.6 195.3 195.3-0.1 107.7-87.6 195.3-195.3 195.3z m0-347.2c-83.7 0-151.9 68.1-151.9 151.9 0 83.7 68.1 151.9 151.9 151.9 83.7 0 151.9-68.1 151.9-151.9 0-83.7-68.2-151.9-151.9-151.9zM783.1 376c-7.5 0-14.8-3.9-18.8-10.9-26.1-45.2-63.6-83.1-108.3-109.5-43.4-25.6-93-40.2-143.4-42.1-12-0.5-21.3-10.5-20.8-22.5s10.6-21.3 22.5-20.8c57.6 2.2 114.2 18.9 163.7 48.1 51.1 30.2 94 73.5 123.8 125.2 6 10.4 2.4 23.6-7.9 29.6-3.3 2-7.1 2.9-10.8 2.9z" /></svg>