<?xml version="1.0" standalone="no"?><!DOCTYPE svg PUBLIC "-//W3C//DTD SVG 1.1//EN" "http://www.w3.org/Graphics/SVG/1.1/DTD/svg11.dtd"><svg class="icon" width="200px" height="200.00px" viewBox="0 0 1024 1024" version="1.1" xmlns="http://www.w3.org/2000/svg"><path fill="#cccccc" d="M557.511111 597.333333c-11.377778 68.266667-28.444444 119.466667-56.888889 142.222223-34.133333 28.444444-102.4 51.2-216.177778 56.888888l-17.066666-39.822222c102.4-5.688889 164.977778-17.066667 199.111111-45.511111 28.444444-22.755556 45.511111-62.577778 51.2-119.466667l39.822222 5.688889z m-5.688889-375.466666v73.955555H625.777778c17.066667-22.755556 28.444444-45.511111 39.822222-68.266666l45.511111 17.066666c-11.377778 22.755556-22.755556 39.822222-34.133333 56.888889h113.777778v125.155556H739.555556V335.644444H312.888889v85.333334h-45.511111V301.511111h113.777778c-5.688889-22.755556-17.066667-39.822222-34.133334-56.888889l45.511111-17.066666c17.066667 17.066667 28.444444 39.822222 39.822223 68.266666h73.955555V221.866667h45.511111z m170.666667 472.177777h-45.511111V568.888889H381.155556v130.844444h-45.511112v-170.666666h386.844445v164.977777z m-34.133333-312.888888v113.777777H369.777778v-113.777777h318.577778z m-45.511112 34.133333h-227.555555v45.511111h227.555555v-45.511111z m147.911112 347.022222l-22.755556 39.822222c-73.955556-34.133333-147.911111-56.888889-221.866667-73.955555l22.755556-34.133334c79.644444 17.066667 153.6 39.822222 221.866667 68.266667zM512 1024c-284.444444 0-512-227.555556-512-512s227.555556-512 512-512 512 227.555556 512 512c0 278.755556-227.555556 512-512 512zM512 45.511111C256 45.511111 45.511111 256 45.511111 512c0 256 210.488889 466.488889 466.488889 466.488889 256 0 466.488889-210.488889 466.488889-466.488889C978.488889 256 768 45.511111 512 45.511111z" /></svg>