<?xml version="1.0" standalone="no"?><!DOCTYPE svg PUBLIC "-//W3C//DTD SVG 1.1//EN" "http://www.w3.org/Graphics/SVG/1.1/DTD/svg11.dtd"><svg class="icon" width="200px" height="200.00px" viewBox="0 0 1024 1024" version="1.1" xmlns="http://www.w3.org/2000/svg"><path fill="#cccccc" d="M80.276664 146.24768C237.767864 149.36064 380.206264 75.63264 513.080504 0c130.82624 78.31552 276.48 148.31616 432.72192 146.24768 1.2288 166.99392 3.09248 327.08608 0 494.08-36.37248 157.06112-165.02784 275.57888-305.19296 348.8768-79.36 46.51008-175.9232 46.10048-255.488 0-137.03168-70.47168-253.952-191.24224-304.88576-336.67072-8.62208-172.09344 0.47104-333.9264 0.04096-506.28608z m125.25568 32.768c-26.25536 8.47872-62.62784 1.65888-83.70176 19.84512-4.54656 111.18592 0.2048 222.57664-2.048 333.824-14.68416 147.3536 85.34016 277.13536 194.68288 363.7248 74.58816 54.784 171.7248 121.11872 266.58816 76.88192 149.83168-63.65184 279.61344-191.77472 322.60096-351.3344 6.41024-142.58176 0.83968-285.5936 2.47808-428.40064-143.01184-5.59104-272.9984-69.24288-392.66304-142.60224C416.107704 104.46848 318.151864 165.25312 205.532344 179.0976z"  /><path fill="#cccccc" d="M461.491384 261.89824c91.91424-35.08224 186.9824 78.35648 151.16288 166.15424-8.88832 31.62112-39.19872 60.23168-59.24864 84.80768 24.39168 15.91296 59.53536 34.6112 83.72224 50.52416-6.61504 9.50272-17.85856 25.33376-24.4736 34.816-66.33472-47.53408-164.29056-71.29088-231.05536-10.752-56.832 36.57728-58.49088 107.88864-80.5888 164.51584-29.34784 29.75744-43.008-26.624-31.39584-48.128 9.5232-86.016 76.94336-150.28224 149.27872-190.99648-100.72064-61.58336-74.15808-225.73056 42.5984-250.94144z m-64.59392 125.93152c-8.06912 57.67168 45.6704 90.7264 92.38528 107.27424 71.45472-17.77664 116.34688-108.01152 62.40256-166.58432-48.14848-61.99296-160.58368-18.59584-154.78784 59.31008z"  /><path fill="#cccccc" d="M807.787704 551.48544c20.48-20.76672 57.344-3.4816 37.35552 21.11488s-151.67488 157.47072-227.9424 235.52c-48.78336-38.66624-98.6112-106.16832-126.48448-135.7824s-1.24928-59.74016 21.27872-34.63168 70.77888 73.91232 105.20576 110.40768c68.46464-59.47392 170.20928-175.86176 190.58688-196.62848z"  /></svg>